<?xml version="1.0" encoding="UTF-8" standalone="no"?><!DOCTYPE svg PUBLIC "-//W3C//DTD SVG 1.1//EN" "http://www.w3.org/Graphics/SVG/1.1/DTD/svg11.dtd"><svg width="100%" height="100%" viewBox="0 0 137 101" version="1.1" xmlns="http://www.w3.org/2000/svg" xmlns:xlink="http://www.w3.org/1999/xlink" xml:space="preserve" xmlns:serif="http://www.serif.com/" style="fill-rule:evenodd;clip-rule:evenodd;stroke-linejoin:round;stroke-miterlimit:1.41421;"><g id="logo"><g id="symbologo"><g><path d="M78.277,70.725c2.16,3.489 5.839,4.343 6.88,9.597c0.282,-0.508 0.437,-1.094 0.437,-1.716c0,-8.784 -6.219,-7.164 -7.317,-14.329l0,6.448Z" style="fill:#e6bd6a;"/><path d="M86.692,72.318c3.33,2.398 7.056,1.779 10.028,6.233c0.067,-0.577 -0.014,-1.177 -0.252,-1.751c-3.361,-8.116 -8.487,-4.239 -12.243,-10.438l2.467,5.956Z" style="fill:#e6bd6a;"/><path d="M71.112,66.032c0.66,4.049 3.732,6.246 2.684,11.497c0.457,-0.362 0.823,-0.843 1.06,-1.416c3.362,-8.115 -3.004,-8.999 -1.276,-16.038l-2.468,5.957Z" style="fill:#e6bd6a;"/><path d="M95.077,70.571c3.994,0.94 7.199,-1.058 11.65,1.92c-0.16,-0.559 -0.464,-1.082 -0.903,-1.521c-6.212,-6.212 -9.464,-0.668 -15.307,-4.958l4.56,4.559Z" style="fill:#e6bd6a;"/><path d="M66.289,58.954c-0.94,3.994 1.058,7.2 -1.921,11.65c0.559,-0.16 1.083,-0.464 1.522,-0.903c6.211,-6.211 0.668,-9.464 4.958,-15.306l-4.559,4.559Z" style="fill:#e6bd6a;"/><path d="M113.651,63.063c-0.362,-0.456 -0.842,-0.822 -1.415,-1.06c-8.116,-3.361 -9,3.005 -16.039,1.277l5.957,2.467c4.05,-0.659 6.246,-3.731 11.497,-2.684Z" style="fill:#e6bd6a;"/><path d="M106.847,58.583l-6.448,0c7.165,-1.098 5.545,-7.317 14.329,-7.317c0.622,0 1.208,0.155 1.716,0.437c-5.254,1.041 -6.108,4.72 -9.597,6.88Z" style="fill:#e6bd6a;"/><path d="M114.673,40.14c-0.577,-0.067 -1.177,0.014 -1.751,0.252c-8.116,3.361 -4.239,8.487 -10.438,12.243l5.957,-2.467c2.397,-3.33 1.778,-7.056 6.232,-10.028Z" style="fill:#e6bd6a;"/><path d="M108.614,30.133c-0.559,0.16 -1.083,0.464 -1.522,0.903c-6.211,6.212 -0.668,9.464 -4.958,15.306l4.559,-4.559c0.94,-3.994 -1.057,-7.199 1.921,-11.65Z" style="fill:#e6bd6a;"/><path d="M99.186,23.209c-0.456,0.361 -0.823,0.842 -1.06,1.415c-3.362,8.116 3.004,8.999 1.276,16.039l2.468,-5.957c-0.66,-4.05 -3.732,-6.247 -2.684,-11.497Z" style="fill:#e6bd6a;"/><path d="M70.828,34.99c-4.049,0.66 -6.246,3.732 -11.497,2.684c0.362,0.456 0.842,0.823 1.415,1.06c8.116,3.362 9,-3.004 16.039,-1.276l-5.957,-2.468Z" style="fill:#e6bd6a;"/><path d="M87.825,20.416c-0.282,0.508 -0.437,1.094 -0.437,1.715c0,8.785 6.219,7.165 7.317,14.33l0,-6.448c-2.16,-3.489 -5.839,-4.343 -6.88,-9.597Z" style="fill:#e6bd6a;"/><path d="M66.255,28.246c0.16,0.559 0.464,1.083 0.904,1.522c6.211,6.211 9.463,0.668 15.306,4.958l-4.56,-4.559c-3.994,-0.94 -7.199,1.057 -11.65,-1.921Z" style="fill:#e6bd6a;"/><path d="M76.262,22.186c-0.066,0.578 0.014,1.178 0.252,1.752c3.361,8.115 8.488,4.239 12.243,10.438l-2.467,-5.957c-3.33,-2.397 -7.056,-1.778 -10.028,-6.233Z" style="fill:#e6bd6a;"/><path d="M75.483,77.649c2.894,4.676 7.825,5.821 9.22,12.862c0.378,-0.681 0.586,-1.466 0.586,-2.299c0,-11.773 -8.335,-9.602 -9.806,-19.204l0,8.641Z" style="fill:#ff8200;"/><path d="M86.761,79.785c4.463,3.213 9.456,2.383 13.439,8.353c0.089,-0.774 -0.019,-1.578 -0.338,-2.347c-4.505,-10.876 -11.375,-5.681 -16.408,-13.989l3.307,7.983Z" style="fill:#ff8200;"/><path d="M65.881,71.36c0.884,5.427 5.001,8.371 3.597,15.408c0.611,-0.485 1.103,-1.129 1.421,-1.897c4.505,-10.876 -4.027,-12.061 -1.711,-21.494l-3.307,7.983Z" style="fill:#ff8200;"/><path d="M97.997,77.443c5.353,1.26 9.649,-1.417 15.613,2.574c-0.214,-0.749 -0.622,-1.451 -1.21,-2.039c-8.325,-8.325 -12.683,-0.896 -20.513,-6.645l6.11,6.11Z" style="fill:#ff8200;"/><path d="M59.417,61.875c-1.26,5.353 1.417,9.648 -2.574,15.613c0.749,-0.214 1.451,-0.622 2.039,-1.21c8.325,-8.325 0.896,-12.684 6.645,-20.513l-6.11,6.11Z" style="fill:#ff8200;"/><path d="M122.89,67.382c-0.485,-0.612 -1.129,-1.103 -1.897,-1.421c-10.876,-4.505 -12.06,4.026 -21.494,1.711l7.983,3.307c5.427,-0.885 8.371,-5.001 15.408,-3.597Z" style="fill:#ff8200;"/><path d="M113.771,61.377l-8.641,0c9.602,-1.471 7.431,-9.806 19.204,-9.806c0.833,0 1.618,0.208 2.299,0.586c-7.041,1.395 -8.186,6.326 -12.862,9.22Z" style="fill:#ff8200;"/><path d="M124.26,36.66c-0.774,-0.089 -1.578,0.019 -2.347,0.338c-10.876,4.505 -5.681,11.375 -13.989,16.408l7.983,-3.307c3.213,-4.463 2.383,-9.456 8.353,-13.439Z" style="fill:#ff8200;"/><path d="M116.139,23.25c-0.749,0.214 -1.451,0.621 -2.039,1.21c-8.324,8.324 -0.896,12.683 -6.645,20.513l6.11,-6.11c1.26,-5.353 -1.417,-9.649 2.574,-15.613Z" style="fill:#ff8200;"/><path d="M103.504,13.97c-0.611,0.485 -1.102,1.129 -1.421,1.897c-4.505,10.876 4.027,12.06 1.711,21.494l3.307,-7.983c-0.884,-5.427 -5.001,-8.372 -3.597,-15.408Z" style="fill:#ff8200;"/><path d="M65.5,29.759c-5.427,0.884 -8.371,5.001 -15.408,3.597c0.485,0.611 1.129,1.102 1.897,1.42c10.876,4.505 12.06,-4.026 21.494,-1.71l-7.983,-3.307Z" style="fill:#ff8200;"/><path d="M88.279,10.227c-0.378,0.681 -0.586,1.466 -0.586,2.299c0,11.773 8.335,9.602 9.806,19.203l0,-8.64c-2.894,-4.677 -7.825,-5.821 -9.22,-12.862Z" style="fill:#ff8200;"/><path d="M59.372,20.721c0.214,0.749 0.622,1.45 1.21,2.039c8.325,8.324 12.683,0.896 20.513,6.645l-6.11,-6.11c-5.353,-1.26 -9.648,1.417 -15.613,-2.574Z" style="fill:#ff8200;"/><path d="M72.782,12.6c-0.089,0.774 0.019,1.578 0.338,2.347c4.505,10.876 11.375,5.681 16.408,13.989l-3.306,-7.983c-4.463,-3.213 -9.457,-2.384 -13.44,-8.353Z" style="fill:#ff8200;"/></g><g><path d="M72.678,84.599c3.632,5.868 9.819,7.304 11.569,16.139c0.474,-0.855 0.736,-1.84 0.736,-2.885c0,-14.772 -10.459,-12.048 -12.305,-24.096l0,10.842Z" style="fill:#89b860;"/><path d="M86.829,87.279c5.6,4.031 11.866,2.991 16.864,10.482c0.111,-0.972 -0.025,-1.981 -0.424,-2.945c-5.653,-13.648 -14.273,-7.129 -20.589,-17.553l4.149,10.016Z" style="fill:#89b860;"/><path d="M60.63,76.708c1.11,6.809 6.275,10.504 4.514,19.333c0.767,-0.608 1.383,-1.416 1.782,-2.38c5.653,-13.647 -5.052,-15.133 -2.147,-26.97l-4.149,10.017Z" style="fill:#89b860;"/><path d="M100.929,84.34c6.716,1.582 12.106,-1.778 19.59,3.23c-0.268,-0.94 -0.78,-1.82 -1.518,-2.558c-10.446,-10.446 -15.915,-1.124 -25.739,-8.338l7.667,7.666Z" style="fill:#89b860;"/><path d="M52.519,64.806c-1.581,6.717 1.778,12.107 -3.23,19.591c0.941,-0.269 1.821,-0.78 2.559,-1.519c10.445,-10.445 1.124,-15.914 8.338,-25.738l-7.667,7.666Z" style="fill:#89b860;"/><path d="M132.164,71.716c-0.609,-0.767 -1.417,-1.383 -2.381,-1.782c-13.647,-5.653 -15.133,5.052 -26.97,2.146l10.017,4.149c6.81,-1.109 10.504,-6.275 19.334,-4.513Z" style="fill:#89b860;"/><path d="M136.86,52.612c-0.854,-0.473 -1.839,-0.735 -2.885,-0.735c-14.772,0 -12.048,10.459 -24.096,12.304l10.842,0c5.868,-3.631 7.304,-9.818 16.139,-11.569Z" style="fill:#89b860;"/><path d="M133.883,33.167c-0.972,-0.111 -1.98,0.024 -2.945,0.424c-13.648,5.653 -7.129,14.273 -17.553,20.589l10.017,-4.149c4.031,-5.6 2.99,-11.866 10.481,-16.864Z" style="fill:#89b860;"/><path d="M123.693,16.34c-0.941,0.269 -1.821,0.781 -2.559,1.519c-10.445,10.445 -1.124,15.915 -8.338,25.739l7.667,-7.667c1.581,-6.716 -1.778,-12.106 3.23,-19.591Z" style="fill:#89b860;"/><path d="M107.838,4.696c-0.767,0.609 -1.383,1.417 -1.782,2.38c-5.653,13.648 5.052,15.134 2.147,26.971l4.149,-10.017c-1.11,-6.81 -6.275,-10.504 -4.514,-19.334Z" style="fill:#89b860;"/><path d="M60.152,24.508c-6.81,1.11 -10.504,6.275 -19.334,4.513c0.609,0.767 1.417,1.384 2.381,1.783c13.647,5.653 15.133,-5.052 26.97,-2.147l-10.017,-4.149Z" style="fill:#89b860;"/><path d="M88.735,0c-0.474,0.854 -0.736,1.839 -0.736,2.885c0,14.772 10.459,12.048 12.305,24.096l0,-10.843c-3.632,-5.867 -9.819,-7.303 -11.569,-16.138Z" style="fill:#89b860;"/><path d="M52.463,13.167c0.269,0.94 0.78,1.82 1.518,2.559c10.446,10.445 15.915,1.124 25.739,8.338l-7.666,-7.667c-6.717,-1.581 -12.107,1.778 -19.591,-3.23Z" style="fill:#89b860;"/><path d="M69.289,2.977c-0.111,0.971 0.025,1.98 0.424,2.945c5.653,13.647 14.273,7.128 20.589,17.553l-4.149,-10.017c-5.6,-4.031 -11.866,-2.99 -16.864,-10.481Z" style="fill:#89b860;"/></g></g><g><path d="M3.188,52.1l-1.093,3.188l-2.095,0l4.625,-13.376l3.412,0l4.709,13.376l-3.041,0l-1.177,-3.188l-5.34,0Zm4.709,-1.948l-2.039,-5.711l-1.955,5.711l3.994,0Z" style="fill:#fff;fill-rule:nonzero;"/><path d="M20.376,49.346l3.819,5.942l-3.531,0l-4.106,-7.231l1.639,0c0.042,0 0.147,0.005 0.315,0.014c0.169,0.009 0.311,0.014 0.428,0.014c1.602,0 2.424,-0.699 2.466,-2.095c0,-0.738 -0.189,-1.325 -0.567,-1.759c-0.379,-0.434 -0.878,-0.652 -1.5,-0.652l-2.725,0l0,11.709l-3.041,0l0,-13.376l6.145,0c2.985,0 4.477,1.291 4.477,3.875c-0.042,1.055 -0.346,1.845 -0.911,2.368c-0.565,0.523 -1.191,0.864 -1.878,1.023c-0.523,0.126 -0.848,0.189 -0.974,0.189c-0.037,0 -0.056,-0.007 -0.056,-0.021Z" style="fill:#fff;fill-rule:nonzero;"/><path d="M25.337,41.912l9.102,0l0,1.667l-6.061,0l0,3.903l5.052,0l0,1.661l-5.052,0l0,4.477l6.145,0l0,1.668l-9.186,0l0,-13.376Z" style="fill:#fff;fill-rule:nonzero;"/><path d="M44.109,51.497l0,-9.557l2.186,0l0,13.376l-3.559,0l-4.884,-10.16l0,10.132l-2.151,0l0,-13.376l3.762,0l4.646,9.585Z" style="fill:#fff;fill-rule:nonzero;"/><path d="M50.366,52.1l-1.093,3.188l-2.095,0l4.625,-13.376l3.412,0l4.709,13.376l-3.041,0l-1.177,-3.188l-5.34,0Zm4.709,-1.948l-2.039,-5.711l-1.955,5.711l3.994,0Z" style="fill:#fff;fill-rule:nonzero;"/><path d="M68.241,49.143l-4.505,0l0,6.145l-3.041,0l0,-13.376l3.041,0l0,5.57l4.505,0l0,-5.57l3.013,0l0,13.376l-3.013,0l0,-6.145Z" style="fill:#fff;fill-rule:nonzero;"/><path d="M78.177,55.491c-1.546,0 -2.712,-0.237 -3.497,-0.711c-0.784,-0.474 -1.288,-1.044 -1.51,-1.71c-0.221,-0.665 -0.332,-1.419 -0.332,-2.259l0,-8.899l3.097,0l0,8.871c0,0.023 -0.005,0.1 -0.014,0.231c-0.01,0.131 -0.014,0.245 -0.014,0.343c0,1.57 0.871,2.354 2.613,2.354c1.607,0 2.411,-0.766 2.411,-2.298c0,-0.121 -0.005,-0.264 -0.014,-0.427c-0.01,-0.164 -0.014,-0.26 -0.014,-0.288l0,-8.786l2.55,0l0,9.417c0,2.775 -1.759,4.162 -5.276,4.162Z" style="fill:#fff;fill-rule:nonzero;"/><path d="M91.462,41.912c2.602,0 3.903,1.062 3.903,3.188c0,1.266 -0.356,2.103 -1.068,2.512c-0.713,0.409 -1.305,0.613 -1.777,0.613c2.219,0.215 3.329,1.287 3.329,3.216c-0.024,1.49 -0.427,2.504 -1.209,3.041c-0.783,0.537 -1.814,0.806 -3.094,0.806l-6.229,0l0,-13.376l6.145,0Zm-0.203,11.708c1.415,0 2.123,-0.773 2.123,-2.319c0,-0.691 -0.209,-1.224 -0.627,-1.598c-0.418,-0.373 -0.945,-0.56 -1.58,-0.56l-2.817,0l0,4.477l2.901,0Zm1.836,-8.38c-0.098,-1.107 -0.757,-1.661 -1.976,-1.661l-2.761,0l0,3.903l2.67,0c1.378,0 2.067,-0.747 2.067,-2.242Z" style="fill:#fff;fill-rule:nonzero;"/></g></g></svg>