<svg xmlns="http://www.w3.org/2000/svg" xmlns:serif="http://www.serif.com/" fill-rule="evenodd" stroke-linejoin="round" stroke-miterlimit="2" clip-rule="evenodd" viewBox="0 0 116 81">
  <g fill="#ff8200">
    <path d="M67.5 60.5c2.17 3.49 5.85 4.34 6.89 9.6.28-.51.43-1.1.43-1.72 0-8.79-6.21-7.17-7.31-14.33v6.45zM75.92 62.1c3.33 2.39 7.06 1.77 10.03 6.22a3.5 3.5 0 0 0-.25-1.75c-3.36-8.11-8.49-4.24-12.24-10.44l2.46 5.96zM60.34 55.8c.66 4.05 3.73 6.25 2.69 11.5.45-.36.82-.84 1.06-1.41 3.36-8.12-3-9-1.28-16.04l-2.47 5.95zM84.3 60.34c4 .94 7.2-1.05 11.66 1.92a3.52 3.52 0 0 0-.9-1.52c-6.22-6.2-9.47-.67-15.31-4.96l4.56 4.56zM102.88 52.84a3.52 3.52 0 0 0-1.41-1.06c-8.12-3.37-9 3-16.04 1.27l5.95 2.47c4.05-.66 6.25-3.73 11.5-2.68zM96.08 48.36h-6.45c7.16-1.1 5.54-7.32 14.33-7.32.62 0 1.2.15 1.71.44-5.25 1.04-6.1 4.72-9.6 6.88zM103.9 29.91a3.5 3.5 0 0 0-1.75.26c-8.11 3.36-4.24 8.48-10.44 12.24l5.96-2.47c2.4-3.33 1.78-7.05 6.23-10.03zM97.84 19.9c-.56.17-1.08.47-1.52.9-6.2 6.22-.67 9.47-4.96 15.31l4.56-4.55c.94-4-1.05-7.2 1.92-11.65zM88.42 12.98a3.5 3.5 0 0 0-1.06 1.42c-3.37 8.11 3 9 1.27 16.04l2.47-5.96c-.66-4.05-3.73-6.25-2.68-11.5zM77.06 10.19c-.29.5-.44 1.1-.44 1.71 0 8.79 6.22 7.17 7.32 14.33V19.8c-2.16-3.5-5.84-4.35-6.88-9.6zM55.49 18.02c.15.56.46 1.08.9 1.52 6.21 6.21 9.46.67 15.3 4.96l-4.55-4.56c-4-.94-7.2 1.06-11.65-1.92zM65.5 11.96c-.07.58 0 1.18.24 1.75 3.37 8.12 8.5 4.24 12.25 10.44l-2.47-5.96c-3.33-2.4-7.06-1.78-10.03-6.23z"/>
  </g>
  <path fill="#89b860" d="M64.71 67.42c2.9 4.68 7.83 5.82 9.22 12.86.38-.68.59-1.46.59-2.3 0-11.77-8.34-9.6-9.8-19.2v8.64zM76 69.56c4.45 3.21 9.45 2.38 13.43 8.35a4.7 4.7 0 0 0-.34-2.35c-4.5-10.87-11.37-5.68-16.4-13.98l3.3 7.98zM55.11 61.13c.89 5.43 5 8.37 3.6 15.41a4.7 4.7 0 0 0 1.42-1.9c4.5-10.87-4.03-12.06-1.71-21.49l-3.3 7.98zM87.23 67.22c5.35 1.26 9.65-1.42 15.61 2.57a4.7 4.7 0 0 0-1.21-2.04c-8.32-8.32-12.68-.9-20.51-6.64l6.1 6.1zM48.65 51.65c-1.26 5.35 1.41 9.65-2.58 15.61a4.72 4.72 0 0 0 2.04-1.2c8.33-8.33.9-12.7 6.65-20.52l-6.11 6.1zM112.12 57.16a4.7 4.7 0 0 0-1.9-1.43c-10.87-4.5-12.06 4.03-21.5 1.72l8 3.3c5.42-.88 8.36-5 15.4-3.6zM103 51.15h-8.64c9.6-1.47 7.43-9.8 19.2-9.8.84 0 1.62.2 2.3.58-7.04 1.4-8.18 6.33-12.86 9.22zM113.49 26.43a4.7 4.7 0 0 0-2.35.34c-10.87 4.5-5.68 11.38-13.99 16.4l7.99-3.3c3.21-4.46 2.38-9.45 8.35-13.44zM105.37 13.02c-.75.22-1.45.62-2.04 1.21-8.32 8.33-.9 12.69-6.64 20.52l6.1-6.11c1.26-5.36-1.41-9.65 2.58-15.62zM92.73 3.74a4.7 4.7 0 0 0-1.42 1.9c-4.5 10.88 4.03 12.06 1.71 21.5l3.31-7.99c-.88-5.43-5-8.37-3.6-15.4zM54.73 19.53c-5.43.89-8.37 5-15.4 3.6a4.7 4.7 0 0 0 1.89 1.42c10.87 4.5 12.06-4.03 21.5-1.71l-7.99-3.3zM77.5 0a4.73 4.73 0 0 0-.58 2.3c0 11.77 8.34 9.6 9.8 19.2v-8.64C83.85 8.18 78.9 7.04 77.52 0zM48.6 10.5c.22.74.62 1.44 1.21 2.03 8.33 8.33 12.69.9 20.51 6.65l-6.1-6.11c-5.36-1.26-9.65 1.41-15.62-2.58zM62.01 2.37c-.09.78.02 1.58.34 2.35 4.5 10.88 11.38 5.68 16.4 13.99l-3.3-7.98C71 7.5 66 8.34 62.01 2.37z"/>
  <g serif:id="rubik bold">
    <path fill="#fff" fill-rule="nonzero" d="M.61 45.6a.61.61 0 0 1-.43-.17A.55.55 0 0 1 0 45V29.73c0-.18.06-.32.18-.44a.59.59 0 0 1 .43-.18h2.66c.4 0 .68.18.85.52l4.05 7.25 4.07-7.25a.88.88 0 0 1 .85-.52h2.66a.6.6 0 0 1 .43.18.6.6 0 0 1 .18.44V45c0 .18-.06.32-.18.43a.61.61 0 0 1-.43.16h-3a.56.56 0 0 1-.4-.18.56.56 0 0 1-.18-.4v-8.57L9.63 41.1c-.2.36-.48.54-.83.54H7.53c-.31 0-.59-.18-.82-.55l-2.52-4.66V45c0 .18-.06.32-.18.43a.61.61 0 0 1-.43.16H.6z"/>
    <path fill="#fff" d="M51.65 37.95c.38.07.56.9.4 1.84-.16.96-.6 1.68-.98 1.61-.38-.06-.56-.89-.4-1.84.16-.95.6-1.67.98-1.6z"/>
    <path fill="#fff" fill-rule="nonzero" d="M20.38 45.6a.56.56 0 0 1-.4-.19.57.57 0 0 1-.18-.4V29.7c0-.18.06-.32.17-.43a.58.58 0 0 1 .41-.17h3.37a.57.57 0 0 1 .59.59V45c0 .16-.06.3-.17.41a.55.55 0 0 1-.42.18h-3.37zM28.36 45.6a.56.56 0 0 1-.4-.19.56.56 0 0 1-.18-.4V29.72c0-.18.05-.32.16-.44a.55.55 0 0 1 .42-.18h6.48c2.07 0 3.69.48 4.86 1.42a4.82 4.82 0 0 1 1.75 3.97c0 1.1-.25 2.04-.76 2.8a5.06 5.06 0 0 1-2.11 1.8l3.18 5.74c.04.1.07.18.07.26a.5.5 0 0 1-.14.34c-.1.1-.22.15-.36.15h-3.32a.98.98 0 0 1-.96-.64l-2.59-5.1H32.2V45c0 .18-.06.32-.18.43a.61.61 0 0 1-.43.16h-3.23zm6.45-9.21c.68 0 1.2-.17 1.55-.5.35-.35.53-.81.53-1.4 0-.6-.18-1.08-.53-1.45-.36-.36-.87-.54-1.55-.54h-2.6v3.89h2.6z"/>
    <path fill="#ff8200" d="M53.79 39.26l-2.1-6-2.1 6-1.83 5.81c-.14.32-.38.5-.8.52H43.9a.47.47 0 0 1-.34-.15.47.47 0 0 1-.16-.34c0-.1.01-.17.03-.22L48.9 29.8c.16-.46.47-.69.95-.69h3.67c.47 0 .78.23.94.69l5.48 15.08c.02.05.03.12.03.22 0 .12-.05.24-.16.34l-.34.15h-3.06a.82.82 0 0 1-.8-.52l-1.83-5.81z"/>
    <path fill="#fff" fill-rule="nonzero" d="M62.59 45.6a.56.56 0 0 1-.41-.19.56.56 0 0 1-.18-.4V29.72c0-.18.06-.32.17-.44a.55.55 0 0 1 .42-.18h6.47c2.07 0 3.7.48 4.86 1.42a4.82 4.82 0 0 1 1.76 3.97c0 1.1-.26 2.04-.77 2.8a5.06 5.06 0 0 1-2.1 1.8l3.17 5.74a.5.5 0 0 1-.07.6c-.1.1-.21.15-.35.15h-3.32a.98.98 0 0 1-.96-.64l-2.6-5.1h-2.25V45c0 .18-.06.32-.18.43a.61.61 0 0 1-.44.16H62.6zm6.45-9.21c.67 0 1.19-.17 1.54-.5.35-.35.53-.81.53-1.4 0-.6-.18-1.08-.53-1.45-.35-.36-.87-.54-1.54-.54h-2.61v3.89h2.6zM79.18 45.6a.56.56 0 0 1-.4-.19.56.56 0 0 1-.19-.4V29.7c0-.18.06-.32.18-.43a.58.58 0 0 1 .41-.17h3.37a.57.57 0 0 1 .59.59V45c0 .16-.06.3-.17.41a.55.55 0 0 1-.42.18h-3.37z"/>
  </g>
</svg>
