<?xml version="1.0" encoding="UTF-8" standalone="no"?><!DOCTYPE svg PUBLIC "-//W3C//DTD SVG 1.1//EN" "http://www.w3.org/Graphics/SVG/1.1/DTD/svg11.dtd"><svg width="100%" height="100%" viewBox="0 0 123 101" version="1.1" xmlns="http://www.w3.org/2000/svg" xmlns:xlink="http://www.w3.org/1999/xlink" xml:space="preserve" xmlns:serif="http://www.serif.com/" style="fill-rule:evenodd;clip-rule:evenodd;stroke-linejoin:round;stroke-miterlimit:2;"><g><g id="logo"><g id="symbologo"><g><g><path d="M64.329,70.725c2.16,3.489 5.839,4.343 6.88,9.597c0.282,-0.508 0.437,-1.094 0.437,-1.716c0,-8.784 -6.219,-7.164 -7.317,-14.329l0,6.448Z" style="fill:#e6bd6a;"/><path d="M72.744,72.318c3.331,2.398 7.056,1.779 10.029,6.233c0.066,-0.577 -0.015,-1.177 -0.252,-1.751c-3.362,-8.116 -8.488,-4.239 -12.244,-10.438l2.467,5.956Z" style="fill:#e6bd6a;"/><path d="M57.165,66.032c0.66,4.049 3.731,6.246 2.684,11.497c0.456,-0.362 0.822,-0.843 1.06,-1.416c3.361,-8.115 -3.005,-8.999 -1.277,-16.038l-2.467,5.957Z" style="fill:#e6bd6a;"/><path d="M81.129,70.571c3.994,0.94 7.199,-1.058 11.65,1.92c-0.16,-0.559 -0.464,-1.082 -0.903,-1.521c-6.212,-6.212 -9.464,-0.668 -15.306,-4.958l4.559,4.559Z" style="fill:#e6bd6a;"/><path d="M99.703,63.063c-0.361,-0.456 -0.842,-0.822 -1.415,-1.06c-8.116,-3.361 -8.999,3.005 -16.038,1.277l5.956,2.467c4.05,-0.659 6.247,-3.731 11.497,-2.684Z" style="fill:#e6bd6a;"/><path d="M92.899,58.583l-6.447,0c7.164,-1.098 5.544,-7.317 14.329,-7.317c0.621,0 1.207,0.155 1.715,0.437c-5.254,1.041 -6.108,4.72 -9.597,6.88Z" style="fill:#e6bd6a;"/><path d="M100.726,40.14c-0.578,-0.067 -1.178,0.014 -1.752,0.252c-8.115,3.361 -4.239,8.487 -10.438,12.243l5.957,-2.467c2.397,-3.33 1.778,-7.056 6.233,-10.028Z" style="fill:#e6bd6a;"/><path d="M94.666,30.133c-0.559,0.16 -1.082,0.464 -1.522,0.903c-6.211,6.212 -0.668,9.464 -4.958,15.306l4.559,-4.559c0.94,-3.994 -1.057,-7.199 1.921,-11.65Z" style="fill:#e6bd6a;"/><path d="M85.238,23.209c-0.456,0.361 -0.823,0.842 -1.06,1.415c-3.362,8.116 3.004,8.999 1.277,16.039l2.467,-5.957c-0.66,-4.05 -3.732,-6.247 -2.684,-11.497Z" style="fill:#e6bd6a;"/><path d="M73.878,20.416c-0.282,0.508 -0.438,1.094 -0.438,1.715c0,8.785 6.22,7.165 7.317,14.33l0,-6.448c-2.159,-3.489 -5.839,-4.343 -6.879,-9.597Z" style="fill:#e6bd6a;"/><path d="M52.308,28.246c0.16,0.559 0.464,1.083 0.903,1.522c6.211,6.211 9.464,0.668 15.306,4.958l-4.559,-4.559c-3.994,-0.94 -7.2,1.057 -11.65,-1.921Z" style="fill:#e6bd6a;"/><path d="M62.314,22.186c-0.066,0.578 0.014,1.178 0.252,1.752c3.362,8.115 8.488,4.239 12.244,10.438l-2.468,-5.957c-3.33,-2.397 -7.056,-1.778 -10.028,-6.233Z" style="fill:#e6bd6a;"/></g><path d="M61.535,77.649c2.894,4.676 7.825,5.821 9.22,12.862c0.378,-0.681 0.586,-1.466 0.586,-2.299c0,-11.773 -8.335,-9.602 -9.806,-19.204l0,8.641Z" style="fill:#ff8200;"/><path d="M72.813,79.785c4.463,3.213 9.456,2.383 13.439,8.353c0.089,-0.774 -0.019,-1.578 -0.337,-2.347c-4.506,-10.876 -11.375,-5.681 -16.409,-13.989l3.307,7.983Z" style="fill:#ff8200;"/><path d="M51.934,71.36c0.884,5.427 5,8.371 3.596,15.408c0.612,-0.485 1.103,-1.129 1.421,-1.897c4.505,-10.876 -4.026,-12.061 -1.711,-21.494l-3.306,7.983Z" style="fill:#ff8200;"/><path d="M84.049,77.443c5.353,1.26 9.649,-1.417 15.613,2.574c-0.214,-0.749 -0.621,-1.451 -1.21,-2.039c-8.324,-8.325 -12.683,-0.896 -20.513,-6.645l6.11,6.11Z" style="fill:#ff8200;"/><path d="M45.469,61.875c-1.26,5.353 1.417,9.648 -2.574,15.613c0.75,-0.214 1.451,-0.622 2.039,-1.21c8.325,-8.325 0.896,-12.684 6.645,-20.513l-6.11,6.11Z" style="fill:#ff8200;"/><path d="M108.943,67.382c-0.485,-0.612 -1.13,-1.103 -1.898,-1.421c-10.876,-4.505 -12.06,4.026 -21.494,1.711l7.983,3.307c5.427,-0.885 8.372,-5.001 15.409,-3.597Z" style="fill:#ff8200;"/><path d="M99.824,61.377l-8.641,0c9.601,-1.471 7.431,-9.806 19.203,-9.806c0.833,0 1.618,0.208 2.299,0.586c-7.041,1.395 -8.185,6.326 -12.861,9.22Z" style="fill:#ff8200;"/><path d="M110.313,36.66c-0.775,-0.089 -1.579,0.019 -2.347,0.338c-10.877,4.505 -5.682,11.375 -13.989,16.408l7.983,-3.307c3.212,-4.463 2.383,-9.456 8.353,-13.439Z" style="fill:#ff8200;"/><path d="M102.191,23.25c-0.749,0.214 -1.45,0.621 -2.039,1.21c-8.324,8.324 -0.895,12.683 -6.645,20.513l6.11,-6.11c1.26,-5.353 -1.417,-9.649 2.574,-15.613Z" style="fill:#ff8200;"/><path d="M89.556,13.97c-0.611,0.485 -1.102,1.129 -1.42,1.897c-4.505,10.876 4.026,12.06 1.711,21.494l3.306,-7.983c-0.884,-5.427 -5.001,-8.372 -3.597,-15.408Z" style="fill:#ff8200;"/><path d="M51.552,29.759c-5.427,0.884 -8.371,5.001 -15.408,3.597c0.485,0.611 1.129,1.102 1.897,1.42c10.877,4.505 12.061,-4.026 21.494,-1.71l-7.983,-3.307Z" style="fill:#ff8200;"/><path d="M74.331,10.227c-0.377,0.681 -0.585,1.466 -0.585,2.299c0,11.773 8.335,9.602 9.805,19.203l0,-8.64c-2.894,-4.677 -7.825,-5.821 -9.22,-12.862Z" style="fill:#ff8200;"/><path d="M45.424,20.721c0.215,0.749 0.622,1.45 1.211,2.039c8.324,8.324 12.683,0.896 20.512,6.645l-6.11,-6.11c-5.352,-1.26 -9.648,1.417 -15.613,-2.574Z" style="fill:#ff8200;"/><path d="M58.834,12.6c-0.088,0.774 0.02,1.578 0.338,2.347c4.505,10.876 11.375,5.681 16.409,13.989l-3.307,-7.983c-4.463,-3.213 -9.456,-2.384 -13.44,-8.353Z" style="fill:#ff8200;"/></g><g><path d="M58.731,84.599c3.631,5.868 9.819,7.304 11.569,16.139c0.474,-0.855 0.735,-1.84 0.735,-2.885c0,-14.772 -10.459,-12.048 -12.304,-24.096l0,10.842Z" style="fill:#89b860;"/><path d="M72.882,87.279c5.6,4.031 11.865,2.991 16.863,10.482c0.111,-0.972 -0.024,-1.981 -0.424,-2.945c-5.653,-13.648 -14.273,-7.129 -20.589,-17.553l4.15,10.016Z" style="fill:#89b860;"/><path d="M46.683,76.708c1.109,6.809 6.275,10.504 4.513,19.333c0.767,-0.608 1.383,-1.416 1.782,-2.38c5.653,-13.647 -5.052,-15.133 -2.146,-26.97l-4.149,10.017Z" style="fill:#89b860;"/><path d="M86.981,84.34c6.716,1.582 12.107,-1.778 19.591,3.23c-0.269,-0.94 -0.78,-1.82 -1.519,-2.558c-10.445,-10.446 -15.914,-1.124 -25.739,-8.338l7.667,7.666Z" style="fill:#89b860;"/><path d="M38.572,64.806c-1.581,6.717 1.778,12.107 -3.23,19.591c0.94,-0.269 1.82,-0.78 2.558,-1.519c10.446,-10.445 1.124,-15.914 8.338,-25.738l-7.666,7.666Z" style="fill:#89b860;"/><path d="M118.216,71.716c-0.608,-0.767 -1.417,-1.383 -2.38,-1.782c-13.648,-5.653 -15.134,5.052 -26.971,2.146l10.017,4.149c6.81,-1.109 10.504,-6.275 19.334,-4.513Z" style="fill:#89b860;"/><path d="M122.912,52.612c-0.854,-0.473 -1.839,-0.735 -2.885,-0.735c-14.771,0 -12.047,10.459 -24.095,12.304l10.842,0c5.867,-3.631 7.303,-9.818 16.138,-11.569Z" style="fill:#89b860;"/><path d="M119.935,33.167c-0.971,-0.111 -1.98,0.024 -2.945,0.424c-13.647,5.653 -7.128,14.273 -17.553,20.589l10.017,-4.149c4.031,-5.6 2.99,-11.866 10.481,-16.864Z" style="fill:#89b860;"/><path d="M109.745,16.34c-0.94,0.269 -1.82,0.781 -2.559,1.519c-10.445,10.445 -1.124,15.915 -8.338,25.739l7.667,-7.667c1.581,-6.716 -1.778,-12.106 3.23,-19.591Z" style="fill:#89b860;"/><path d="M93.891,4.696c-0.767,0.609 -1.384,1.417 -1.783,2.38c-5.653,13.648 5.052,15.134 2.147,26.971l4.149,-10.017c-1.109,-6.81 -6.275,-10.504 -4.513,-19.334Z" style="fill:#89b860;"/><path d="M46.204,24.508c-6.809,1.11 -10.504,6.275 -19.333,4.513c0.608,0.767 1.416,1.384 2.38,1.783c13.647,5.653 15.133,-5.052 26.97,-2.147l-10.017,-4.149Z" style="fill:#89b860;"/><path d="M74.787,0c-0.474,0.854 -0.735,1.839 -0.735,2.885c0,14.772 10.458,12.048 12.304,24.096l0,-10.843c-3.631,-5.867 -9.819,-7.303 -11.569,-16.138Z" style="fill:#89b860;"/><path d="M38.515,13.167c0.269,0.94 0.78,1.82 1.519,2.559c10.445,10.445 15.914,1.124 25.738,8.338l-7.666,-7.667c-6.717,-1.581 -12.107,1.778 -19.591,-3.23Z" style="fill:#89b860;"/><path d="M55.342,2.977c-0.112,0.971 0.024,1.98 0.424,2.945c5.653,13.647 14.273,7.128 20.588,17.553l-4.149,-10.017c-5.6,-4.031 -11.865,-2.99 -16.863,-10.481Z" style="fill:#89b860;"/></g></g><g id="mirari-italic" serif:id="mirari italic"><path d="M0,56.026l0.768,0l3.495,-12.549l2.991,12.549l0.821,0l0.847,-1.403l8.128,-12.999l-1.535,14.402l1.826,0l1.986,-18.374l-0.609,0l-10.008,16.044l-3.839,-16.044l-2.012,0l1.059,4.395l-3.918,13.979Z" style="fill:#fff;fill-rule:nonzero;"/><path d="M24.993,37.652l-3.892,18.374l1.827,0l3.891,-18.374l-1.826,0Z" style="fill:#fff;fill-rule:nonzero;"/><path d="M29.123,37.679l-3.892,18.374l1.827,0l1.879,-8.896l2.039,0c3.204,0.979 4.977,4.474 4.13,8.551c-0.026,0.08 -0.053,0.186 -0.079,0.265l1.562,0c0.026,-0.079 0.053,-0.185 0.079,-0.265c0.795,-3.759 -0.688,-7.016 -3.547,-8.551c2.568,-0.08 5.083,-2.171 5.639,-4.739c0.556,-2.595 -1.139,-4.739 -3.733,-4.739l-5.904,0Zm1.668,0.768l3.256,0c2.198,0 3.601,1.773 3.151,3.971c-0.477,2.197 -2.648,3.971 -4.845,3.971l-1.218,0l-2.039,0l1.695,-7.942Z" style="fill:#fff;fill-rule:nonzero;"/><path d="M54.274,56c-1.085,-6.116 -2.144,-12.232 -3.23,-18.348l-0.794,0l-11.411,18.348l0.821,0l9.849,-15.886c0.926,5.296 1.88,10.591 2.806,15.886l1.959,0Z" style="fill:#fff;fill-rule:nonzero;"/><path d="M60.496,37.679l-3.892,18.374l1.827,0l1.88,-8.896l2.038,0c3.204,0.979 4.978,4.474 4.13,8.551c-0.026,0.08 -0.053,0.186 -0.079,0.265l1.562,0c0.027,-0.079 0.053,-0.185 0.079,-0.265c0.795,-3.759 -0.688,-7.016 -3.547,-8.551c2.568,-0.08 5.083,-2.171 5.639,-4.739c0.556,-2.595 -1.138,-4.739 -3.733,-4.739l-5.904,0Zm1.668,0.768l3.256,0c2.198,0 3.601,1.773 3.151,3.971c-0.477,2.197 -2.648,3.971 -4.845,3.971l-1.218,0l-2.038,0l1.694,-7.942Z" style="fill:#fff;fill-rule:nonzero;"/><path d="M75.19,37.652l-3.892,18.374l1.827,0l3.892,-18.374l-1.827,0Z" style="fill:#fff;fill-rule:nonzero;"/></g><path d="M48.181,46.419c0.358,0.156 0.236,1.231 -0.272,2.399c-0.509,1.168 -1.212,1.989 -1.571,1.833c-0.358,-0.156 -0.236,-1.231 0.272,-2.399c0.509,-1.168 1.212,-1.989 1.571,-1.833Z" style="fill:#ff8200;"/></g></g></svg>