<?xml version="1.0" encoding="UTF-8" standalone="no"?><!DOCTYPE svg PUBLIC "-//W3C//DTD SVG 1.1//EN" "http://www.w3.org/Graphics/SVG/1.1/DTD/svg11.dtd"><svg width="100%" height="100%" viewBox="0 0 127 101" version="1.1" xmlns="http://www.w3.org/2000/svg" xmlns:xlink="http://www.w3.org/1999/xlink" xml:space="preserve" xmlns:serif="http://www.serif.com/" style="fill-rule:evenodd;clip-rule:evenodd;stroke-linejoin:round;stroke-miterlimit:2;"><g id="logo"><g id="symbologo"><g><g><path d="M67.507,70.725c2.16,3.489 5.839,4.343 6.88,9.597c0.282,-0.508 0.437,-1.094 0.437,-1.716c0,-8.784 -6.219,-7.164 -7.317,-14.329l0,6.448Z" style="fill:#e6bd6a;"/><path d="M75.922,72.318c3.33,2.398 7.056,1.779 10.028,6.233c0.067,-0.577 -0.014,-1.177 -0.252,-1.751c-3.361,-8.116 -8.487,-4.239 -12.243,-10.438l2.467,5.956Z" style="fill:#e6bd6a;"/><path d="M60.343,66.032c0.659,4.049 3.731,6.246 2.684,11.497c0.456,-0.362 0.822,-0.843 1.06,-1.416c3.361,-8.115 -3.005,-8.999 -1.277,-16.038l-2.467,5.957Z" style="fill:#e6bd6a;"/><path d="M84.307,70.571c3.994,0.94 7.199,-1.058 11.65,1.92c-0.16,-0.559 -0.464,-1.082 -0.903,-1.521c-6.212,-6.212 -9.464,-0.668 -15.306,-4.958l4.559,4.559Z" style="fill:#e6bd6a;"/><path d="M102.881,63.063c-0.362,-0.456 -0.842,-0.822 -1.415,-1.06c-8.116,-3.361 -8.999,3.005 -16.039,1.277l5.957,2.467c4.05,-0.659 6.247,-3.731 11.497,-2.684Z" style="fill:#e6bd6a;"/><path d="M96.077,58.583l-6.448,0c7.165,-1.098 5.545,-7.317 14.329,-7.317c0.622,0 1.208,0.155 1.716,0.437c-5.254,1.041 -6.108,4.72 -9.597,6.88Z" style="fill:#e6bd6a;"/><path d="M103.904,40.14c-0.578,-0.067 -1.178,0.014 -1.752,0.252c-8.115,3.361 -4.239,8.487 -10.438,12.243l5.957,-2.467c2.397,-3.33 1.778,-7.056 6.233,-10.028Z" style="fill:#e6bd6a;"/><path d="M97.844,30.133c-0.559,0.16 -1.083,0.464 -1.522,0.903c-6.211,6.212 -0.668,9.464 -4.958,15.306l4.559,-4.559c0.94,-3.994 -1.057,-7.199 1.921,-11.65Z" style="fill:#e6bd6a;"/><path d="M88.416,23.209c-0.456,0.361 -0.823,0.842 -1.06,1.415c-3.362,8.116 3.004,8.999 1.276,16.039l2.468,-5.957c-0.66,-4.05 -3.732,-6.247 -2.684,-11.497Z" style="fill:#e6bd6a;"/><path d="M77.055,20.416c-0.281,0.508 -0.437,1.094 -0.437,1.715c0,8.785 6.22,7.165 7.317,14.33l0,-6.448c-2.159,-3.489 -5.839,-4.343 -6.88,-9.597Z" style="fill:#e6bd6a;"/><path d="M55.486,28.246c0.159,0.559 0.464,1.083 0.903,1.522c6.211,6.211 9.464,0.668 15.306,4.958l-4.559,-4.559c-3.994,-0.94 -7.2,1.057 -11.65,-1.921Z" style="fill:#e6bd6a;"/><path d="M65.492,22.186c-0.066,0.578 0.014,1.178 0.252,1.752c3.362,8.115 8.488,4.239 12.243,10.438l-2.467,-5.957c-3.33,-2.397 -7.056,-1.778 -10.028,-6.233Z" style="fill:#e6bd6a;"/></g><path d="M64.713,77.649c2.894,4.676 7.825,5.821 9.22,12.862c0.378,-0.681 0.586,-1.466 0.586,-2.299c0,-11.773 -8.335,-9.602 -9.806,-19.204l0,8.641Z" style="fill:#ff8200;"/><path d="M75.991,79.785c4.463,3.213 9.456,2.383 13.439,8.353c0.089,-0.774 -0.019,-1.578 -0.338,-2.347c-4.505,-10.876 -11.375,-5.681 -16.408,-13.989l3.307,7.983Z" style="fill:#ff8200;"/><path d="M55.111,71.36c0.885,5.427 5.001,8.371 3.597,15.408c0.611,-0.485 1.103,-1.129 1.421,-1.897c4.505,-10.876 -4.026,-12.061 -1.711,-21.494l-3.307,7.983Z" style="fill:#ff8200;"/><path d="M87.227,77.443c5.353,1.26 9.649,-1.417 15.613,2.574c-0.214,-0.749 -0.621,-1.451 -1.21,-2.039c-8.324,-8.325 -12.683,-0.896 -20.513,-6.645l6.11,6.11Z" style="fill:#ff8200;"/><path d="M48.647,61.875c-1.26,5.353 1.417,9.648 -2.574,15.613c0.749,-0.214 1.451,-0.622 2.039,-1.21c8.325,-8.325 0.896,-12.684 6.645,-20.513l-6.11,6.11Z" style="fill:#ff8200;"/><path d="M112.12,67.382c-0.485,-0.612 -1.129,-1.103 -1.897,-1.421c-10.876,-4.505 -12.06,4.026 -21.494,1.711l7.983,3.307c5.427,-0.885 8.371,-5.001 15.408,-3.597Z" style="fill:#ff8200;"/><path d="M103.001,61.377l-8.64,0c9.601,-1.471 7.43,-9.806 19.203,-9.806c0.833,0 1.618,0.208 2.299,0.586c-7.041,1.395 -8.185,6.326 -12.862,9.22Z" style="fill:#ff8200;"/><path d="M113.49,36.66c-0.774,-0.089 -1.578,0.019 -2.347,0.338c-10.876,4.505 -5.681,11.375 -13.989,16.408l7.983,-3.307c3.213,-4.463 2.384,-9.456 8.353,-13.439Z" style="fill:#ff8200;"/><path d="M105.369,23.25c-0.749,0.214 -1.45,0.621 -2.039,1.21c-8.324,8.324 -0.896,12.683 -6.645,20.513l6.11,-6.11c1.26,-5.353 -1.417,-9.649 2.574,-15.613Z" style="fill:#ff8200;"/><path d="M92.734,13.97c-0.611,0.485 -1.102,1.129 -1.42,1.897c-4.506,10.876 4.026,12.06 1.71,21.494l3.307,-7.983c-0.884,-5.427 -5.001,-8.372 -3.597,-15.408Z" style="fill:#ff8200;"/><path d="M54.73,29.759c-5.427,0.884 -8.371,5.001 -15.408,3.597c0.485,0.611 1.129,1.102 1.897,1.42c10.876,4.505 12.061,-4.026 21.494,-1.71l-7.983,-3.307Z" style="fill:#ff8200;"/><path d="M77.509,10.227c-0.377,0.681 -0.586,1.466 -0.586,2.299c0,11.773 8.335,9.602 9.806,19.203l0,-8.64c-2.894,-4.677 -7.825,-5.821 -9.22,-12.862Z" style="fill:#ff8200;"/><path d="M48.602,20.721c0.214,0.749 0.622,1.45 1.21,2.039c8.325,8.324 12.684,0.896 20.513,6.645l-6.11,-6.11c-5.353,-1.26 -9.648,1.417 -15.613,-2.574Z" style="fill:#ff8200;"/><path d="M62.012,12.6c-0.089,0.774 0.02,1.578 0.338,2.347c4.505,10.876 11.375,5.681 16.408,13.989l-3.306,-7.983c-4.463,-3.213 -9.457,-2.384 -13.44,-8.353Z" style="fill:#ff8200;"/></g><g><path d="M61.908,84.599c3.632,5.868 9.819,7.304 11.57,16.139c0.473,-0.855 0.735,-1.84 0.735,-2.885c0,-14.772 -10.459,-12.048 -12.305,-24.096l0,10.842Z" style="fill:#89b860;"/><path d="M76.059,87.279c5.6,4.031 11.866,2.991 16.864,10.482c0.111,-0.972 -0.024,-1.981 -0.424,-2.945c-5.653,-13.648 -14.273,-7.129 -20.589,-17.553l4.149,10.016Z" style="fill:#89b860;"/><path d="M49.86,76.708c1.11,6.809 6.276,10.504 4.514,19.333c0.767,-0.608 1.383,-1.416 1.782,-2.38c5.653,-13.647 -5.052,-15.133 -2.146,-26.97l-4.15,10.017Z" style="fill:#89b860;"/><path d="M90.159,84.34c6.716,1.582 12.106,-1.778 19.591,3.23c-0.269,-0.94 -0.781,-1.82 -1.519,-2.558c-10.445,-10.446 -15.915,-1.124 -25.739,-8.338l7.667,7.666Z" style="fill:#89b860;"/><path d="M41.75,64.806c-1.582,6.717 1.778,12.107 -3.23,19.591c0.94,-0.269 1.82,-0.78 2.558,-1.519c10.446,-10.445 1.124,-15.914 8.338,-25.738l-7.666,7.666Z" style="fill:#89b860;"/><path d="M121.394,71.716c-0.609,-0.767 -1.417,-1.383 -2.38,-1.782c-13.648,-5.653 -15.134,5.052 -26.971,2.146l10.017,4.149c6.81,-1.109 10.504,-6.275 19.334,-4.513Z" style="fill:#89b860;"/><path d="M126.09,52.612c-0.854,-0.473 -1.839,-0.735 -2.885,-0.735c-14.772,0 -12.048,10.459 -24.096,12.304l10.843,0c5.867,-3.631 7.303,-9.818 16.138,-11.569Z" style="fill:#89b860;"/><path d="M123.113,33.167c-0.971,-0.111 -1.98,0.024 -2.945,0.424c-13.647,5.653 -7.128,14.273 -17.553,20.589l10.017,-4.149c4.031,-5.6 2.99,-11.866 10.481,-16.864Z" style="fill:#89b860;"/><path d="M112.923,16.34c-0.94,0.269 -1.82,0.781 -2.559,1.519c-10.445,10.445 -1.124,15.915 -8.338,25.739l7.667,-7.667c1.581,-6.716 -1.778,-12.106 3.23,-19.591Z" style="fill:#89b860;"/><path d="M97.069,4.696c-0.767,0.609 -1.384,1.417 -1.783,2.38c-5.653,13.648 5.052,15.134 2.147,26.971l4.149,-10.017c-1.11,-6.81 -6.275,-10.504 -4.513,-19.334Z" style="fill:#89b860;"/><path d="M49.382,24.508c-6.809,1.11 -10.504,6.275 -19.333,4.513c0.608,0.767 1.416,1.384 2.38,1.783c13.647,5.653 15.133,-5.052 26.97,-2.147l-10.017,-4.149Z" style="fill:#89b860;"/><path d="M77.965,0c-0.474,0.854 -0.735,1.839 -0.735,2.885c0,14.772 10.458,12.048 12.304,24.096l0,-10.843c-3.632,-5.867 -9.819,-7.303 -11.569,-16.138Z" style="fill:#89b860;"/><path d="M41.693,13.167c0.269,0.94 0.78,1.82 1.518,2.559c10.446,10.445 15.915,1.124 25.739,8.338l-7.666,-7.667c-6.717,-1.581 -12.107,1.778 -19.591,-3.23Z" style="fill:#89b860;"/><path d="M58.52,2.977c-0.112,0.971 0.024,1.98 0.423,2.945c5.653,13.647 14.273,7.128 20.589,17.553l-4.149,-10.017c-5.6,-4.031 -11.865,-2.99 -16.863,-10.481Z" style="fill:#89b860;"/></g></g><g id="rubik-bold" serif:id="rubik bold"><path d="M0.612,55.818c-0.173,0 -0.318,-0.055 -0.435,-0.165c-0.118,-0.11 -0.177,-0.251 -0.177,-0.423l0,-15.277c0,-0.173 0.059,-0.318 0.177,-0.435c0.117,-0.118 0.262,-0.177 0.435,-0.177l2.66,0c0.392,0 0.675,0.173 0.847,0.518l4.049,7.25l4.072,-7.25c0.173,-0.345 0.455,-0.518 0.847,-0.518l2.66,0c0.173,0 0.318,0.059 0.436,0.177c0.117,0.117 0.176,0.262 0.176,0.435l0,15.277c0,0.172 -0.059,0.313 -0.176,0.423c-0.118,0.11 -0.263,0.165 -0.436,0.165l-2.989,0c-0.157,0 -0.294,-0.059 -0.412,-0.176c-0.118,-0.118 -0.177,-0.255 -0.177,-0.412l0,-8.568l-2.542,4.66c-0.204,0.361 -0.478,0.542 -0.824,0.542l-1.271,0c-0.314,0 -0.588,-0.181 -0.824,-0.542l-2.518,-4.66l0,8.568c0,0.172 -0.059,0.313 -0.177,0.423c-0.117,0.11 -0.263,0.165 -0.435,0.165l-2.966,0Z" style="fill:#fff;fill-rule:nonzero;"/><path d="M51.65,48.179c0.381,0.064 0.56,0.89 0.399,1.842c-0.16,0.953 -0.6,1.674 -0.981,1.61c-0.381,-0.064 -0.56,-0.89 -0.399,-1.842c0.16,-0.953 0.6,-1.674 0.981,-1.61Z" style="fill:#fff;"/><path d="M20.384,55.818c-0.157,0 -0.294,-0.059 -0.412,-0.176c-0.117,-0.118 -0.176,-0.255 -0.176,-0.412l0,-15.3c0,-0.173 0.059,-0.314 0.176,-0.424c0.118,-0.11 0.255,-0.165 0.412,-0.165l3.366,0c0.173,0 0.314,0.055 0.424,0.165c0.11,0.11 0.165,0.251 0.165,0.424l0,15.3c0,0.157 -0.055,0.294 -0.165,0.412c-0.11,0.117 -0.251,0.176 -0.424,0.176l-3.366,0Z" style="fill:#fff;fill-rule:nonzero;"/><path d="M28.364,55.818c-0.157,0 -0.294,-0.059 -0.412,-0.176c-0.118,-0.118 -0.177,-0.255 -0.177,-0.412l0,-15.277c0,-0.173 0.055,-0.318 0.165,-0.435c0.11,-0.118 0.251,-0.177 0.424,-0.177l6.473,0c2.071,0 3.692,0.471 4.861,1.412c1.169,0.942 1.753,2.268 1.753,3.978c0,1.099 -0.255,2.033 -0.765,2.802c-0.51,0.768 -1.212,1.365 -2.106,1.788l3.177,5.744c0.047,0.094 0.071,0.18 0.071,0.259c0,0.125 -0.047,0.239 -0.141,0.341c-0.094,0.102 -0.212,0.153 -0.353,0.153l-3.319,0c-0.455,0 -0.777,-0.212 -0.965,-0.635l-2.59,-5.108l-2.259,0l0,5.155c0,0.172 -0.059,0.313 -0.177,0.423c-0.118,0.11 -0.263,0.165 -0.435,0.165l-3.225,0Zm6.449,-9.203c0.675,0 1.189,-0.169 1.542,-0.507c0.353,-0.337 0.53,-0.804 0.53,-1.4c0,-0.596 -0.177,-1.075 -0.53,-1.436c-0.353,-0.361 -0.867,-0.541 -1.542,-0.541l-2.612,0l0,3.884l2.612,0Z" style="fill:#fff;fill-rule:nonzero;"/><path d="M53.786,49.486l-2.095,-6.002l-2.095,6.002l-1.836,5.814c-0.145,0.318 -0.383,0.49 -0.801,0.518l-3.06,0c-0.125,0 -0.239,-0.051 -0.341,-0.153c-0.102,-0.102 -0.153,-0.216 -0.153,-0.341c0,-0.094 0.008,-0.165 0.024,-0.212l5.484,-15.088c0.157,-0.455 0.471,-0.683 0.942,-0.683l3.672,0c0.47,0 0.784,0.228 0.941,0.683l5.485,15.088c0.015,0.047 0.023,0.118 0.023,0.212c0,0.125 -0.051,0.239 -0.153,0.341l-0.341,0.153l-3.06,0c-0.377,0 -0.644,-0.173 -0.8,-0.518l-1.836,-5.814Z" style="fill:#fff;"/><path d="M62.589,55.818c-0.157,0 -0.294,-0.059 -0.412,-0.176c-0.118,-0.118 -0.177,-0.255 -0.177,-0.412l0,-15.277c0,-0.173 0.055,-0.318 0.165,-0.435c0.11,-0.118 0.251,-0.177 0.424,-0.177l6.473,0c2.071,0 3.692,0.471 4.861,1.412c1.169,0.942 1.753,2.268 1.753,3.978c0,1.099 -0.255,2.033 -0.765,2.802c-0.51,0.768 -1.212,1.365 -2.106,1.788l3.177,5.744c0.047,0.094 0.071,0.18 0.071,0.259c0,0.125 -0.047,0.239 -0.141,0.341c-0.094,0.102 -0.212,0.153 -0.353,0.153l-3.319,0c-0.455,0 -0.777,-0.212 -0.965,-0.635l-2.59,-5.108l-2.259,0l0,5.155c0,0.172 -0.059,0.313 -0.177,0.423c-0.118,0.11 -0.263,0.165 -0.435,0.165l-3.225,0Zm6.45,-9.203c0.674,0 1.188,-0.169 1.541,-0.507c0.353,-0.337 0.53,-0.804 0.53,-1.4c0,-0.596 -0.177,-1.075 -0.53,-1.436c-0.353,-0.361 -0.867,-0.541 -1.541,-0.541l-2.613,0l0,3.884l2.613,0Z" style="fill:#fff;fill-rule:nonzero;"/><path d="M79.184,55.818c-0.157,0 -0.295,-0.059 -0.412,-0.176c-0.118,-0.118 -0.177,-0.255 -0.177,-0.412l0,-15.3c0,-0.173 0.059,-0.314 0.177,-0.424c0.117,-0.11 0.255,-0.165 0.412,-0.165l3.366,0c0.172,0 0.313,0.055 0.423,0.165c0.11,0.11 0.165,0.251 0.165,0.424l0,15.3c0,0.157 -0.055,0.294 -0.165,0.412c-0.11,0.117 -0.251,0.176 -0.423,0.176l-3.366,0Z" style="fill:#fff;fill-rule:nonzero;"/></g></g></svg>