<?xml version="1.0" encoding="UTF-8" standalone="no"?><!DOCTYPE svg PUBLIC "-//W3C//DTD SVG 1.1//EN" "http://www.w3.org/Graphics/SVG/1.1/DTD/svg11.dtd"><svg width="100%" height="100%" viewBox="0 0 16 16" version="1.1" xmlns="http://www.w3.org/2000/svg" xmlns:xlink="http://www.w3.org/1999/xlink" xml:space="preserve" xmlns:serif="http://www.serif.com/" style="fill-rule:evenodd;clip-rule:evenodd;stroke-linejoin:round;stroke-miterlimit:2;"><g><circle cx="8" cy="8" r="8" style="fill:#053842;"/><g id="logo"><g id="symbologo"><g><g><path d="M6.363,12.057c0.43,0.695 1.164,0.865 1.371,1.912c0.056,-0.101 0.087,-0.218 0.087,-0.341c0,-1.751 -1.239,-1.428 -1.458,-2.856l0,1.285Z" style="fill:#ff8200;"/><path d="M8.04,12.374c0.664,0.478 1.406,0.355 1.999,1.243c0.013,-0.116 -0.003,-0.235 -0.051,-0.349c-0.67,-1.618 -1.691,-0.845 -2.44,-2.081l0.492,1.187Z" style="fill:#ff8200;"/><path d="M4.935,11.122c0.132,0.807 0.744,1.244 0.535,2.291c0.091,-0.072 0.164,-0.168 0.211,-0.282c0.67,-1.618 -0.598,-1.794 -0.254,-3.197l-0.492,1.188Z" style="fill:#ff8200;"/><path d="M9.711,12.026c0.796,0.187 1.435,-0.211 2.322,0.383c-0.032,-0.112 -0.093,-0.216 -0.18,-0.303c-1.238,-1.238 -1.886,-0.134 -3.051,-0.988l0.909,0.908Z" style="fill:#ff8200;"/><path d="M13.413,10.53c-0.072,-0.091 -0.168,-0.164 -0.282,-0.211c-1.618,-0.67 -1.794,0.598 -3.197,0.254l1.188,0.492c0.807,-0.132 1.244,-0.744 2.291,-0.535Z" style="fill:#ff8200;"/><path d="M12.057,9.637l-1.285,0c1.428,-0.219 1.105,-1.458 2.856,-1.458c0.123,0 0.24,0.031 0.341,0.087c-1.047,0.207 -1.217,0.941 -1.912,1.371Z" style="fill:#ff8200;"/><path d="M13.617,5.961c-0.116,-0.013 -0.235,0.003 -0.349,0.051c-1.618,0.67 -0.845,1.691 -2.081,2.44l1.187,-0.492c0.478,-0.664 0.355,-1.406 1.243,-1.999Z" style="fill:#ff8200;"/><path d="M12.409,3.967c-0.112,0.032 -0.216,0.093 -0.303,0.18c-1.238,1.238 -0.134,1.886 -0.988,3.051l0.908,-0.909c0.187,-0.796 -0.211,-1.435 0.383,-2.322Z" style="fill:#ff8200;"/><path d="M10.53,2.587c-0.091,0.072 -0.164,0.168 -0.211,0.282c-0.67,1.618 0.598,1.794 0.254,3.197l0.492,-1.188c-0.132,-0.807 -0.744,-1.244 -0.535,-2.291Z" style="fill:#ff8200;"/><path d="M8.266,2.031c-0.056,0.101 -0.087,0.218 -0.087,0.341c0,1.751 1.239,1.428 1.458,2.856l0,-1.285c-0.43,-0.695 -1.164,-0.865 -1.371,-1.912Z" style="fill:#ff8200;"/><path d="M3.967,3.591c0.032,0.112 0.093,0.216 0.18,0.303c1.238,1.238 1.886,0.134 3.051,0.988l-0.909,-0.908c-0.796,-0.187 -1.435,0.211 -2.322,-0.383Z" style="fill:#ff8200;"/><path d="M5.961,2.383c-0.013,0.116 0.003,0.235 0.051,0.349c0.67,1.618 1.691,0.845 2.44,2.081l-0.492,-1.187c-0.664,-0.478 -1.406,-0.355 -1.999,-1.243Z" style="fill:#ff8200;"/></g><path d="M5.806,13.437c0.577,0.932 1.56,1.16 1.838,2.563c0.075,-0.136 0.116,-0.292 0.116,-0.458c0,-2.346 -1.661,-1.914 -1.954,-3.827l0,1.722Z" style="fill:#89b860;"/><path d="M8.054,13.862c0.889,0.641 1.884,0.475 2.678,1.665c0.018,-0.154 -0.004,-0.314 -0.067,-0.468c-0.898,-2.167 -2.267,-1.132 -3.27,-2.788l0.659,1.591Z" style="fill:#89b860;"/><path d="M3.893,12.183c0.176,1.082 0.996,1.669 0.716,3.071c0.122,-0.097 0.22,-0.225 0.284,-0.378c0.897,-2.168 -0.803,-2.404 -0.341,-4.284l-0.659,1.591Z" style="fill:#89b860;"/><path d="M10.293,13.396c1.067,0.251 1.923,-0.283 3.112,0.513c-0.043,-0.15 -0.124,-0.289 -0.242,-0.407c-1.659,-1.659 -2.527,-0.178 -4.088,-1.324l1.218,1.218Z" style="fill:#89b860;"/><path d="M2.604,10.293c-0.251,1.067 0.283,1.923 -0.513,3.112c0.15,-0.043 0.289,-0.124 0.407,-0.242c1.659,-1.659 0.178,-2.527 1.324,-4.088l-1.218,1.218Z" style="fill:#89b860;"/><path d="M15.254,11.391c-0.097,-0.122 -0.225,-0.22 -0.378,-0.284c-2.168,-0.897 -2.404,0.803 -4.284,0.341l1.591,0.659c1.082,-0.176 1.669,-0.996 3.071,-0.716Z" style="fill:#89b860;"/><path d="M13.437,10.194l-1.722,0c1.913,-0.293 1.481,-1.954 3.827,-1.954c0.166,0 0.322,0.041 0.458,0.116c-1.403,0.278 -1.631,1.261 -2.563,1.838Z" style="fill:#89b860;"/><path d="M15.527,5.268c-0.154,-0.018 -0.314,0.004 -0.468,0.067c-2.167,0.898 -1.132,2.267 -2.788,3.27l1.591,-0.659c0.641,-0.889 0.475,-1.884 1.665,-2.678Z" style="fill:#89b860;"/><path d="M13.909,2.595c-0.15,0.043 -0.289,0.124 -0.407,0.242c-1.659,1.659 -0.178,2.527 -1.324,4.088l1.218,-1.218c0.251,-1.067 -0.283,-1.923 0.513,-3.112Z" style="fill:#89b860;"/><path d="M11.391,0.746c-0.122,0.097 -0.22,0.225 -0.284,0.378c-0.897,2.168 0.803,2.404 0.341,4.284l0.659,-1.591c-0.176,-1.082 -0.996,-1.669 -0.716,-3.071Z" style="fill:#89b860;"/><path d="M3.817,3.893c-1.082,0.176 -1.669,0.996 -3.071,0.716c0.097,0.122 0.225,0.22 0.378,0.284c2.168,0.897 2.404,-0.803 4.284,-0.341l-1.591,-0.659Z" style="fill:#89b860;"/><path d="M8.356,0c-0.075,0.136 -0.116,0.292 -0.116,0.458c0,2.346 1.661,1.914 1.954,3.827l0,-1.722c-0.577,-0.932 -1.56,-1.16 -1.838,-2.563Z" style="fill:#89b860;"/><path d="M2.595,2.091c0.043,0.15 0.124,0.289 0.242,0.407c1.659,1.659 2.527,0.178 4.088,1.324l-1.218,-1.218c-1.067,-0.251 -1.923,0.283 -3.112,-0.513Z" style="fill:#89b860;"/><path d="M5.268,0.473c-0.018,0.154 0.004,0.314 0.067,0.468c0.898,2.167 2.267,1.132 3.27,2.788l-0.659,-1.591c-0.889,-0.641 -1.884,-0.475 -2.678,-1.665Z" style="fill:#89b860;"/></g></g><g id="rubik-bold" serif:id="rubik bold"><path d="M3.203,7.564c0.076,0.012 0.111,0.177 0.079,0.367c-0.032,0.19 -0.119,0.333 -0.195,0.32c-0.076,-0.012 -0.112,-0.177 -0.08,-0.367c0.032,-0.189 0.12,-0.333 0.196,-0.32Z" style="fill:#fff;"/><path d="M3.628,7.824l-0.417,-1.196l-0.418,1.196l-0.366,1.159c-0.028,0.063 -0.076,0.097 -0.159,0.103l-0.61,0c-0.025,0 -0.048,-0.01 -0.068,-0.03c-0.02,-0.021 -0.03,-0.043 -0.03,-0.069c0,-0.018 0.001,-0.032 0.004,-0.042l1.093,-3.007c0.032,-0.09 0.094,-0.136 0.188,-0.136l0.732,0c0.094,0 0.156,0.046 0.187,0.136l1.093,3.007c0.004,0.01 0.005,0.024 0.005,0.042c0,0.026 -0.01,0.048 -0.03,0.069l-0.068,0.03l-0.61,0c-0.075,0 -0.128,-0.034 -0.16,-0.103l-0.366,-1.159Z" style="fill:#ff8200;"/></g></g></g></svg>